<svg width="20" height="20" viewBox="0 0 20 20" fill="none" xmlns="http://www.w3.org/2000/svg">
<path d="M15.5515 13.6907L14.9966 13.3211C14.8778 13.4994 14.852 13.7241 14.9273 13.9247L15.5515 13.6907ZM13.6925 15.5504L13.9265 14.9261C13.7258 14.8509 13.5011 14.8767 13.3227 14.9957L13.6925 15.5504ZM16.6672 16.6659L16.4331 17.2901C16.6779 17.3819 16.9537 17.3221 17.1386 17.1373C17.3235 16.9524 17.3832 16.6766 17.2914 16.4318L16.6672 16.6659ZM15.9991 9.99961C15.9991 11.2291 15.63 12.3703 14.9966 13.3211L16.1063 14.0602C16.8809 12.8974 17.3324 11.5002 17.3324 9.99961H15.9991ZM9.99936 3.99992C13.3129 3.99992 15.9991 6.68607 15.9991 9.99961H17.3324C17.3324 5.94969 14.0493 2.66659 9.99936 2.66659V3.99992ZM3.99967 9.99961C3.99967 6.68607 6.68583 3.99992 9.99936 3.99992V2.66659C5.94945 2.66659 2.66634 5.94969 2.66634 9.99961H3.99967ZM9.99936 15.9993C6.68583 15.9993 3.99967 13.3131 3.99967 9.99961H2.66634C2.66634 14.0495 5.94945 17.3326 9.99936 17.3326V15.9993ZM13.3227 14.9957C12.3716 15.6297 11.2296 15.9993 9.99936 15.9993V17.3326C11.5009 17.3326 12.8989 16.8806 14.0623 16.1051L13.3227 14.9957ZM13.4584 16.1746L16.4331 17.2901L16.9013 16.0417L13.9265 14.9261L13.4584 16.1746ZM17.2914 16.4318L16.1757 13.4566L14.9273 13.9247L16.043 16.9L17.2914 16.4318Z" fill="#B9B8BD"/>
<circle cx="6.66634" cy="10.0001" r="0.833333" fill="#B9B8BD"/>
<circle cx="10.0003" cy="10.0001" r="0.833333" fill="#B9B8BD"/>
<circle cx="13.3333" cy="10.0001" r="0.833333" fill="#B9B8BD"/>
</svg>
