<svg width="20" height="20" viewBox="0 0 20 20" fill="none" xmlns="http://www.w3.org/2000/svg">
<path d="M7.5 17.5L11.5 17.5C14.3284 17.5 15.7426 17.5 16.6213 16.6213C17.5 15.7426 17.5 14.3284 17.5 11.5L17.5 8.5C17.5 5.67157 17.5 4.25736 16.6213 3.37868C15.7426 2.5 14.3284 2.5 11.5 2.5L8.5 2.5C5.67157 2.5 4.25736 2.5 3.37868 3.37868C2.5 4.25736 2.5 5.67157 2.5 8.5L2.5 12.5" stroke="white" stroke-width="1.5" stroke-linecap="round"/>
<path d="M12.5 7.5L13.25 7.5L13.25 6.75L12.5 6.75L12.5 7.5ZM5.303 13.6363C5.01011 13.9292 5.01011 14.4041 5.303 14.697C5.5959 14.9899 6.07077 14.9899 6.36366 14.697L5.303 13.6363ZM6.66667 8.25L12.5 8.25L12.5 6.75L6.66667 6.75L6.66667 8.25ZM11.75 7.5L11.75 13.3333L13.25 13.3333L13.25 7.5L11.75 7.5ZM11.9697 6.96967L5.303 13.6363L6.36366 14.697L13.0303 8.03033L11.9697 6.96967Z" fill="white"/>
</svg>
