<svg width="22" height="22" viewBox="0 0 22 22" fill="none" xmlns="http://www.w3.org/2000/svg">
<circle cx="11" cy="11" r="7.4" stroke="#3D3E43" stroke-width="1.2"/>
<path d="M10.5452 9.6209C10.4348 9.6209 10.3452 9.71045 10.3452 9.8209V14.3187C10.3452 14.4291 10.4348 14.5187 10.5452 14.5187H11.4608C11.5712 14.5187 11.6608 14.4291 11.6608 14.3187V9.8209C11.6608 9.71045 11.5712 9.6209 11.4608 9.6209H10.5452ZM10.3008 7.90535C10.3008 8.29646 10.5497 8.60757 11.003 8.60757C11.4563 8.60757 11.7052 8.29646 11.7052 7.90535C11.7052 7.51424 11.4563 7.20312 11.003 7.20312C10.5497 7.20312 10.3008 7.51424 10.3008 7.90535Z" fill="#3D3E43"/>
</svg>
