<svg width="16" height="16" viewBox="0 0 16 16" fill="none" xmlns="http://www.w3.org/2000/svg">
<circle cx="8" cy="8" r="8" fill="#F2F0F1"/>
<path d="M7.62311 6.8626C7.51265 6.8626 7.42311 6.95215 7.42311 7.0626V11.5604C7.42311 11.6708 7.51265 11.7604 7.62311 11.7604H8.53866C8.64912 11.7604 8.73866 11.6708 8.73866 11.5604V7.0626C8.73866 6.95214 8.64912 6.8626 8.53866 6.8626H7.62311ZM7.37866 5.14705C7.37866 5.53816 7.62755 5.84927 8.08088 5.84927C8.53422 5.84927 8.78311 5.53816 8.78311 5.14705C8.78311 4.75594 8.53422 4.44482 8.08088 4.44482C7.62755 4.44482 7.37866 4.75594 7.37866 5.14705Z" fill="#8C8B8F"/>
</svg>
