<svg width="24" height="24" viewBox="0 0 24 24" fill="none" xmlns="http://www.w3.org/2000/svg">
<path d="M9 21L15 21C17.8284 21 19.2426 21 20.1213 20.1213C21 19.2426 21 17.8284 21 15L21 9C21 6.17157 21 4.75736 20.1213 3.87868C19.2426 3 17.8284 3 15 3L9 3C6.17157 3 4.75736 3 3.87868 3.87868C3 4.75736 3 6.17157 3 9L3 15" stroke="#2A2A2E" stroke-width="1.5" stroke-linecap="round"/>
<path d="M15 9L15.75 9L15.75 8.25L15 8.25L15 9ZM6.46967 16.4697C6.17678 16.7626 6.17678 17.2374 6.46967 17.5303C6.76256 17.8232 7.23744 17.8232 7.53033 17.5303L6.46967 16.4697ZM8 9.75L15 9.75L15 8.25L8 8.25L8 9.75ZM14.25 9L14.25 16L15.75 16L15.75 9L14.25 9ZM14.4697 8.46967L6.46967 16.4697L7.53033 17.5303L15.5303 9.53033L14.4697 8.46967Z" fill="#2A2A2E"/>
</svg>
